<svg width="512" height="512" viewBox="0 0 100 100" fill="none" xmlns="http://www.w3.org/2000/svg">
  <defs>
    <!-- Background Gradient -->
    <linearGradient id="bg-verde" x1="0%" y1="0%" x2="100%" y2="100%">
      <stop offset="0%" stop-color="#03140C" />
      <stop offset="100%" stop-color="#062617" />
    </linearGradient>

    <!-- Core Ambient Radial Glow -->
    <radialGradient id="glow-verde" cx="50%" cy="46%" r="46%">
      <stop offset="0%" stop-color="rgba(16, 185, 129, 0.35)" />
      <stop offset="100%" stop-color="transparent" />
    </radialGradient>

    <!-- Upper Facet: Top Bar + Apex Wedge -->
    <linearGradient id="facet-top-verde" x1="0%" y1="0%" x2="100%" y2="100%">
      <stop offset="0%" stop-color="#F0FDF4" />
      <stop offset="35%" stop-color="#4ADE80" />
      <stop offset="100%" stop-color="#10B981" />
    </linearGradient>

    <!-- Diagonal Blade: Center Precision Prism -->
    <linearGradient id="blade-verde" x1="0%" y1="100%" x2="100%" y2="0%">
      <stop offset="0%" stop-color="#059669" />
      <stop offset="50%" stop-color="#10B981" />
      <stop offset="100%" stop-color="#4ADE80" />
    </linearGradient>

    <!-- Lower Facet: Base Wing Foundation -->
    <linearGradient id="facet-bot-verde" x1="0%" y1="0%" x2="100%" y2="100%">
      <stop offset="0%" stop-color="#4ADE80" />
      <stop offset="60%" stop-color="#10B981" />
      <stop offset="100%" stop-color="#059669" />
    </linearGradient>

    <!-- Star Radiant Flare -->
    <radialGradient id="star-flare-verde" cx="50%" cy="50%" r="50%">
      <stop offset="0%" stop-color="#FFFFFF" />
      <stop offset="35%" stop-color="#4ADE80" stop-opacity="0.95" />
      <stop offset="100%" stop-color="#4ADE80" stop-opacity="0" />
    </radialGradient>

    <!-- Drop Shadow for Upper Elements -->
    <filter id="shadow-verde" x="-20%" y="-20%" width="140%" height="140%">
      <feDropShadow dx="0" dy="3.5" stdDeviation="4" flood-color="#000000" flood-opacity="0.55"/>
    </filter>
  </defs>

  <!-- Luxury Squircle Badge -->
  <rect x="2" y="2" width="96" height="96" rx="24" fill="url(#bg-verde)" />
  <circle cx="50" cy="46" r="42" fill="url(#glow-verde)" />
  <rect x="2" y="2" width="96" height="96" rx="24" stroke="rgba(74, 222, 128, 0.35)" stroke-width="1.2" fill="none" />
  <rect x="3.5" y="3.5" width="93" height="93" rx="22.5" stroke="rgba(255, 255, 255, 0.08)" stroke-width="0.8" fill="none" />

  <!-- Astronomical Orbit Arc (Celestial Trajectory) -->
  <ellipse cx="50" cy="50" rx="36" ry="17" transform="rotate(-28 50 50)" stroke="#4ADE80" stroke-width="1.2" stroke-dasharray="3 4" opacity="0.3" fill="none" />

  <!-- === THE ZENITH APEX Z MONOGRAM === -->
  <!-- 
    Master Geometry:
    An ultra-clean, architectural Z composed of three solid precision-beveled components:
    1. Base Foundation Bar: anchors the bottom with forward momentum.
    2. Diagonal Blade: a sharp 48-degree dynamic chiseled prism.
    3. Upper Apex Wing: ascends upward and forms a sharp mountain peak / arrow pointing to the zenith star.
  -->

  <!-- 1. Base Wing (Ground / Foundation) -->
  <path
    d="M 28 66 H 72 C 75.5 66 77.5 70 75 73 L 73 75 C 71.5 76.5 69.5 76.5 67.5 76.5 H 24 C 20.5 76.5 18.5 72.5 21 69.5 L 24 66 Z"
    fill="url(#facet-bot-verde)"
  />

  <!-- 2. Diagonal Blade (Connecting Prism) -->
  <path
    d="M 68 31 L 28 73 C 26 75 22 74 23 71 L 27 65 L 61 27 C 63 25 67 26 66 29 L 68 31 Z"
    fill="url(#blade-verde)"
  />

  <!-- 3. Upper Apex Wing (Reaching the Zenith) with Shadow -->
  <g filter="url(#shadow-verde)">
    <!-- Main Top Bar -->
    <path
      d="M 24 25 H 68 C 72 25 74 28 72 31.5 L 70 34 C 68.5 36 66 36 63.5 36 H 32 C 28.5 36 26.5 32 29 29 L 32 25 Z"
      fill="url(#facet-top-verde)"
    />

    <!-- Apex Needle Crest pointing up to star -->
    <path
      d="M 62 25 L 74 21 L 70 33 Z"
      fill="#FFFFFF"
      opacity="0.9"
    />

    <!-- Razor Specular Highlight Line on Upper Crest -->
    <line x1="28" y1="26" x2="69" y2="26" stroke="#FFFFFF" stroke-width="1.2" stroke-linecap="round" opacity="0.9" />
    <line x1="64" y1="28" x2="29" y2="69" stroke="#FFFFFF" stroke-width="1.2" stroke-linecap="round" opacity="0.8" />
  </g>

  <!-- === THE RADIANT ZENITH SUMMIT STAR === -->
  <!-- Ambient Flare at (74, 21) -->
  <circle cx="74" cy="21" r="14" fill="url(#star-flare-verde)" />

  <!-- 4-point Diamond Star -->
  <path
    d="M 74 9 Q 74 21 64 21 Q 74 21 74 33 Q 74 21 84 21 Q 74 21 74 9 Z"
    fill="#FFFFFF"
  />
  <!-- Core Brilliant Specular Dot -->
  <circle cx="74" cy="21" r="1.8" fill="#FFFFFF" />
</svg>